<mxfile host="app.diagrams.net" agent="Mozilla/5.0 (Windows NT 10.0; Win64; x64) AppleWebKit/537.36 (KHTML, like Gecko) Chrome/126.0.0.0 Safari/537.36" version="24.7.5">
  <diagram id="R2lEEEUBdFMjLlhIrx00" name="Page-1">
    <mxGraphModel dx="954" dy="592" grid="1" gridSize="10" guides="1" tooltips="1" connect="1" arrows="1" fold="1" page="1" pageScale="1" pageWidth="850" pageHeight="1100" math="0" shadow="0" extFonts="Permanent Marker^https://fonts.googleapis.com/css?family=Permanent+Marker">
      <root>
        <mxCell id="0" />
        <mxCell id="1" parent="0" />
        <mxCell id="NrlBIx-T-GIZaoPw2DhL-2" value="Mendaftar" style="shape=rhombus;perimeter=rhombusPerimeter;whiteSpace=wrap;html=1;align=center;fillColor=#008a00;fontColor=#ffffff;strokeColor=#005700;" vertex="1" parent="1">
          <mxGeometry x="400" y="250" width="70" height="60" as="geometry" />
        </mxCell>
        <mxCell id="NrlBIx-T-GIZaoPw2DhL-3" value="nama" style="ellipse;whiteSpace=wrap;html=1;align=center;fillColor=#008a00;fontColor=#ffffff;strokeColor=#005700;" vertex="1" parent="1">
          <mxGeometry x="170" y="200" width="60" height="30" as="geometry" />
        </mxCell>
        <mxCell id="NrlBIx-T-GIZaoPw2DhL-4" value="" style="endArrow=none;html=1;rounded=0;exitX=1;exitY=0.5;exitDx=0;exitDy=0;" edge="1" parent="1" source="NrlBIx-T-GIZaoPw2DhL-18" target="NrlBIx-T-GIZaoPw2DhL-2">
          <mxGeometry relative="1" as="geometry">
            <mxPoint x="190" y="280" as="sourcePoint" />
            <mxPoint x="360" y="279.5" as="targetPoint" />
            <Array as="points">
              <mxPoint x="310" y="279.5" />
            </Array>
          </mxGeometry>
        </mxCell>
        <mxCell id="NrlBIx-T-GIZaoPw2DhL-19" value="Many" style="edgeLabel;html=1;align=center;verticalAlign=middle;resizable=0;points=[];" vertex="1" connectable="0" parent="NrlBIx-T-GIZaoPw2DhL-4">
          <mxGeometry x="-0.2358" relative="1" as="geometry">
            <mxPoint x="10" y="10" as="offset" />
          </mxGeometry>
        </mxCell>
        <mxCell id="NrlBIx-T-GIZaoPw2DhL-7" value="" style="endArrow=none;html=1;rounded=0;exitX=1;exitY=0.5;exitDx=0;exitDy=0;entryX=0;entryY=0.5;entryDx=0;entryDy=0;" edge="1" parent="1" source="NrlBIx-T-GIZaoPw2DhL-2" target="NrlBIx-T-GIZaoPw2DhL-17">
          <mxGeometry relative="1" as="geometry">
            <mxPoint x="460" y="279.5" as="sourcePoint" />
            <mxPoint x="550" y="280" as="targetPoint" />
          </mxGeometry>
        </mxCell>
        <mxCell id="NrlBIx-T-GIZaoPw2DhL-39" value="Many" style="edgeLabel;html=1;align=center;verticalAlign=middle;resizable=0;points=[];" vertex="1" connectable="0" parent="NrlBIx-T-GIZaoPw2DhL-7">
          <mxGeometry x="-0.1455" y="-4" relative="1" as="geometry">
            <mxPoint y="6" as="offset" />
          </mxGeometry>
        </mxCell>
        <mxCell id="NrlBIx-T-GIZaoPw2DhL-9" value="Meminjam" style="shape=rhombus;perimeter=rhombusPerimeter;whiteSpace=wrap;html=1;align=center;fillColor=#008a00;fontColor=#ffffff;strokeColor=#005700;" vertex="1" parent="1">
          <mxGeometry x="600" y="420" width="120" height="60" as="geometry" />
        </mxCell>
        <mxCell id="NrlBIx-T-GIZaoPw2DhL-11" value="" style="endArrow=none;html=1;rounded=0;entryX=0.5;entryY=1;entryDx=0;entryDy=0;exitX=0.5;exitY=0;exitDx=0;exitDy=0;" edge="1" parent="1" source="NrlBIx-T-GIZaoPw2DhL-9" target="NrlBIx-T-GIZaoPw2DhL-17">
          <mxGeometry relative="1" as="geometry">
            <mxPoint x="340" y="320" as="sourcePoint" />
            <mxPoint x="600" y="300" as="targetPoint" />
          </mxGeometry>
        </mxCell>
        <mxCell id="NrlBIx-T-GIZaoPw2DhL-22" value="1" style="edgeLabel;html=1;align=center;verticalAlign=middle;resizable=0;points=[];" vertex="1" connectable="0" parent="NrlBIx-T-GIZaoPw2DhL-11">
          <mxGeometry x="0.1455" y="1" relative="1" as="geometry">
            <mxPoint as="offset" />
          </mxGeometry>
        </mxCell>
        <mxCell id="NrlBIx-T-GIZaoPw2DhL-12" value="" style="endArrow=none;html=1;rounded=0;entryX=0.5;entryY=1;entryDx=0;entryDy=0;exitX=0.5;exitY=0;exitDx=0;exitDy=0;" edge="1" parent="1" source="NrlBIx-T-GIZaoPw2DhL-16" target="NrlBIx-T-GIZaoPw2DhL-9">
          <mxGeometry relative="1" as="geometry">
            <mxPoint x="600" y="640" as="sourcePoint" />
            <mxPoint x="500" y="320" as="targetPoint" />
          </mxGeometry>
        </mxCell>
        <mxCell id="NrlBIx-T-GIZaoPw2DhL-23" value="Many" style="edgeLabel;html=1;align=center;verticalAlign=middle;resizable=0;points=[];" vertex="1" connectable="0" parent="NrlBIx-T-GIZaoPw2DhL-12">
          <mxGeometry x="0.25" y="1" relative="1" as="geometry">
            <mxPoint as="offset" />
          </mxGeometry>
        </mxCell>
        <mxCell id="NrlBIx-T-GIZaoPw2DhL-16" value="Buku" style="whiteSpace=wrap;html=1;align=center;fillColor=#008a00;fontColor=#ffffff;strokeColor=#005700;" vertex="1" parent="1">
          <mxGeometry x="610" y="630" width="100" height="40" as="geometry" />
        </mxCell>
        <mxCell id="NrlBIx-T-GIZaoPw2DhL-17" value="Anggota Perpustakaan" style="whiteSpace=wrap;html=1;align=center;fillColor=#008a00;fontColor=#ffffff;strokeColor=#005700;" vertex="1" parent="1">
          <mxGeometry x="610" y="260" width="100" height="40" as="geometry" />
        </mxCell>
        <mxCell id="NrlBIx-T-GIZaoPw2DhL-18" value="Mahasiswa" style="whiteSpace=wrap;html=1;align=center;fillColor=#008a00;fontColor=#ffffff;strokeColor=#005700;" vertex="1" parent="1">
          <mxGeometry x="150" y="260" width="100" height="40" as="geometry" />
        </mxCell>
        <mxCell id="NrlBIx-T-GIZaoPw2DhL-24" value="" style="endArrow=none;html=1;rounded=0;exitX=0.5;exitY=0;exitDx=0;exitDy=0;entryX=0.5;entryY=1;entryDx=0;entryDy=0;fillColor=#008a00;strokeColor=#005700;" edge="1" parent="1" source="NrlBIx-T-GIZaoPw2DhL-18" target="NrlBIx-T-GIZaoPw2DhL-3">
          <mxGeometry relative="1" as="geometry">
            <mxPoint x="190" y="120" as="sourcePoint" />
            <mxPoint x="350" y="120" as="targetPoint" />
          </mxGeometry>
        </mxCell>
        <mxCell id="NrlBIx-T-GIZaoPw2DhL-25" value="nama_tengah" style="ellipse;whiteSpace=wrap;html=1;align=center;fillColor=#008a00;fontColor=#ffffff;strokeColor=#005700;" vertex="1" parent="1">
          <mxGeometry x="150" y="130" width="100" height="40" as="geometry" />
        </mxCell>
        <mxCell id="NrlBIx-T-GIZaoPw2DhL-26" value="nama_belakang" style="ellipse;whiteSpace=wrap;html=1;align=center;fillColor=#008a00;fontColor=#ffffff;strokeColor=#005700;" vertex="1" parent="1">
          <mxGeometry x="240" y="160" width="100" height="40" as="geometry" />
        </mxCell>
        <mxCell id="NrlBIx-T-GIZaoPw2DhL-27" value="nama_depan" style="ellipse;whiteSpace=wrap;html=1;align=center;fillColor=#008a00;fontColor=#ffffff;strokeColor=#005700;" vertex="1" parent="1">
          <mxGeometry x="60" y="160" width="100" height="40" as="geometry" />
        </mxCell>
        <mxCell id="NrlBIx-T-GIZaoPw2DhL-28" value="" style="endArrow=none;html=1;rounded=0;exitX=0.5;exitY=0;exitDx=0;exitDy=0;entryX=0.5;entryY=1;entryDx=0;entryDy=0;" edge="1" parent="1" source="NrlBIx-T-GIZaoPw2DhL-3" target="NrlBIx-T-GIZaoPw2DhL-25">
          <mxGeometry relative="1" as="geometry">
            <mxPoint x="190" y="120" as="sourcePoint" />
            <mxPoint x="350" y="120" as="targetPoint" />
          </mxGeometry>
        </mxCell>
        <mxCell id="NrlBIx-T-GIZaoPw2DhL-30" value="" style="endArrow=none;html=1;rounded=0;exitX=0.5;exitY=0;exitDx=0;exitDy=0;entryX=0;entryY=0.5;entryDx=0;entryDy=0;" edge="1" parent="1" source="NrlBIx-T-GIZaoPw2DhL-3" target="NrlBIx-T-GIZaoPw2DhL-26">
          <mxGeometry relative="1" as="geometry">
            <mxPoint x="190" y="120" as="sourcePoint" />
            <mxPoint x="350" y="120" as="targetPoint" />
          </mxGeometry>
        </mxCell>
        <mxCell id="NrlBIx-T-GIZaoPw2DhL-31" value="" style="endArrow=none;html=1;rounded=0;exitX=0.5;exitY=0;exitDx=0;exitDy=0;entryX=1;entryY=0.5;entryDx=0;entryDy=0;" edge="1" parent="1" source="NrlBIx-T-GIZaoPw2DhL-3" target="NrlBIx-T-GIZaoPw2DhL-27">
          <mxGeometry relative="1" as="geometry">
            <mxPoint x="190" y="120" as="sourcePoint" />
            <mxPoint x="350" y="120" as="targetPoint" />
          </mxGeometry>
        </mxCell>
        <mxCell id="NrlBIx-T-GIZaoPw2DhL-33" value="jurusan" style="ellipse;whiteSpace=wrap;html=1;align=center;fillColor=#008a00;fontColor=#ffffff;strokeColor=#005700;" vertex="1" parent="1">
          <mxGeometry x="30" y="260" width="70" height="40" as="geometry" />
        </mxCell>
        <mxCell id="NrlBIx-T-GIZaoPw2DhL-34" value="alamat" style="ellipse;whiteSpace=wrap;html=1;align=center;fillColor=#008a00;fontColor=#ffffff;strokeColor=#005700;" vertex="1" parent="1">
          <mxGeometry x="75" y="310" width="70" height="40" as="geometry" />
        </mxCell>
        <mxCell id="NrlBIx-T-GIZaoPw2DhL-35" value="" style="endArrow=none;html=1;rounded=0;exitX=0;exitY=0.5;exitDx=0;exitDy=0;entryX=1;entryY=0.5;entryDx=0;entryDy=0;fillColor=#008a00;strokeColor=#005700;" edge="1" parent="1" source="NrlBIx-T-GIZaoPw2DhL-18" target="NrlBIx-T-GIZaoPw2DhL-33">
          <mxGeometry relative="1" as="geometry">
            <mxPoint x="190" y="120" as="sourcePoint" />
            <mxPoint x="350" y="120" as="targetPoint" />
          </mxGeometry>
        </mxCell>
        <mxCell id="NrlBIx-T-GIZaoPw2DhL-36" value="" style="endArrow=none;html=1;rounded=0;exitX=0;exitY=0.5;exitDx=0;exitDy=0;entryX=1;entryY=1;entryDx=0;entryDy=0;fillColor=#008a00;strokeColor=#005700;" edge="1" parent="1" source="NrlBIx-T-GIZaoPw2DhL-18" target="NrlBIx-T-GIZaoPw2DhL-52">
          <mxGeometry relative="1" as="geometry">
            <mxPoint x="190" y="120" as="sourcePoint" />
            <mxPoint x="110" y="250" as="targetPoint" />
          </mxGeometry>
        </mxCell>
        <mxCell id="NrlBIx-T-GIZaoPw2DhL-37" value="" style="endArrow=none;html=1;rounded=0;exitX=0;exitY=0.5;exitDx=0;exitDy=0;entryX=0.5;entryY=0;entryDx=0;entryDy=0;fillColor=#008a00;strokeColor=#005700;" edge="1" parent="1" source="NrlBIx-T-GIZaoPw2DhL-18" target="NrlBIx-T-GIZaoPw2DhL-34">
          <mxGeometry relative="1" as="geometry">
            <mxPoint x="190" y="120" as="sourcePoint" />
            <mxPoint x="350" y="120" as="targetPoint" />
          </mxGeometry>
        </mxCell>
        <mxCell id="NrlBIx-T-GIZaoPw2DhL-38" value="jurusan" style="ellipse;whiteSpace=wrap;html=1;align=center;fillColor=#008a00;fontColor=#ffffff;strokeColor=#005700;" vertex="1" parent="1">
          <mxGeometry x="350" y="150" width="70" height="40" as="geometry" />
        </mxCell>
        <mxCell id="NrlBIx-T-GIZaoPw2DhL-40" value="alamat" style="ellipse;whiteSpace=wrap;html=1;align=center;fillColor=#008a00;fontColor=#ffffff;strokeColor=#005700;" vertex="1" parent="1">
          <mxGeometry x="340" y="200" width="70" height="40" as="geometry" />
        </mxCell>
        <mxCell id="NrlBIx-T-GIZaoPw2DhL-42" value="nama" style="ellipse;whiteSpace=wrap;html=1;align=center;fillColor=#008a00;fontColor=#ffffff;strokeColor=#005700;" vertex="1" parent="1">
          <mxGeometry x="460" y="200" width="70" height="40" as="geometry" />
        </mxCell>
        <mxCell id="NrlBIx-T-GIZaoPw2DhL-43" value="" style="endArrow=none;html=1;rounded=0;exitX=0.5;exitY=0;exitDx=0;exitDy=0;entryX=1;entryY=1;entryDx=0;entryDy=0;fillColor=#008a00;strokeColor=#005700;" edge="1" parent="1" source="NrlBIx-T-GIZaoPw2DhL-2" target="NrlBIx-T-GIZaoPw2DhL-38">
          <mxGeometry relative="1" as="geometry">
            <mxPoint x="420" y="220" as="sourcePoint" />
            <mxPoint x="580" y="220" as="targetPoint" />
          </mxGeometry>
        </mxCell>
        <mxCell id="NrlBIx-T-GIZaoPw2DhL-48" value="" style="endArrow=none;html=1;rounded=0;exitX=0.5;exitY=0;exitDx=0;exitDy=0;entryX=0;entryY=1;entryDx=0;entryDy=0;fillColor=#008a00;strokeColor=#005700;" edge="1" parent="1" source="NrlBIx-T-GIZaoPw2DhL-2" target="NrlBIx-T-GIZaoPw2DhL-54">
          <mxGeometry relative="1" as="geometry">
            <mxPoint x="420" y="220" as="sourcePoint" />
            <mxPoint x="464.01" y="189" as="targetPoint" />
          </mxGeometry>
        </mxCell>
        <mxCell id="NrlBIx-T-GIZaoPw2DhL-50" value="" style="endArrow=none;html=1;rounded=0;exitX=0.5;exitY=0;exitDx=0;exitDy=0;fillColor=#008a00;strokeColor=#005700;" edge="1" parent="1" source="NrlBIx-T-GIZaoPw2DhL-2" target="NrlBIx-T-GIZaoPw2DhL-40">
          <mxGeometry relative="1" as="geometry">
            <mxPoint x="420" y="220" as="sourcePoint" />
            <mxPoint x="580" y="220" as="targetPoint" />
          </mxGeometry>
        </mxCell>
        <mxCell id="NrlBIx-T-GIZaoPw2DhL-51" value="" style="endArrow=none;html=1;rounded=0;exitX=0.5;exitY=0;exitDx=0;exitDy=0;entryX=0;entryY=1;entryDx=0;entryDy=0;fillColor=#008a00;strokeColor=#005700;" edge="1" parent="1" source="NrlBIx-T-GIZaoPw2DhL-2" target="NrlBIx-T-GIZaoPw2DhL-42">
          <mxGeometry relative="1" as="geometry">
            <mxPoint x="420" y="220" as="sourcePoint" />
            <mxPoint x="580" y="220" as="targetPoint" />
          </mxGeometry>
        </mxCell>
        <mxCell id="NrlBIx-T-GIZaoPw2DhL-52" value="nim" style="ellipse;whiteSpace=wrap;html=1;align=center;fontStyle=4;fillColor=#008a00;fontColor=#ffffff;strokeColor=#005700;" vertex="1" parent="1">
          <mxGeometry x="70" y="210" width="70" height="40" as="geometry" />
        </mxCell>
        <mxCell id="NrlBIx-T-GIZaoPw2DhL-54" value="nim" style="ellipse;whiteSpace=wrap;html=1;align=center;fontStyle=4;fillColor=#008a00;fontColor=#ffffff;strokeColor=#005700;" vertex="1" parent="1">
          <mxGeometry x="450" y="150" width="70" height="40" as="geometry" />
        </mxCell>
        <mxCell id="NrlBIx-T-GIZaoPw2DhL-55" value="nomor_anggota" style="ellipse;whiteSpace=wrap;html=1;align=center;fontStyle=4;fillColor=#008a00;fontColor=#ffffff;strokeColor=#005700;" vertex="1" parent="1">
          <mxGeometry x="530" y="210" width="100" height="40" as="geometry" />
        </mxCell>
        <mxCell id="NrlBIx-T-GIZaoPw2DhL-57" value="masa_berlaku" style="ellipse;whiteSpace=wrap;html=1;align=center;fillColor=#008a00;fontColor=#ffffff;strokeColor=#005700;" vertex="1" parent="1">
          <mxGeometry x="690" y="210" width="100" height="40" as="geometry" />
        </mxCell>
        <mxCell id="NrlBIx-T-GIZaoPw2DhL-58" value="jurusan" style="ellipse;whiteSpace=wrap;html=1;align=center;fillColor=#008a00;fontColor=#ffffff;strokeColor=#005700;" vertex="1" parent="1">
          <mxGeometry x="660" y="160" width="100" height="40" as="geometry" />
        </mxCell>
        <mxCell id="NrlBIx-T-GIZaoPw2DhL-59" value="nama" style="ellipse;whiteSpace=wrap;html=1;align=center;fillColor=#008a00;fontColor=#ffffff;strokeColor=#005700;" vertex="1" parent="1">
          <mxGeometry x="550" y="160" width="100" height="40" as="geometry" />
        </mxCell>
        <mxCell id="NrlBIx-T-GIZaoPw2DhL-60" value="" style="endArrow=none;html=1;rounded=0;entryX=0.5;entryY=0;entryDx=0;entryDy=0;exitX=1;exitY=1;exitDx=0;exitDy=0;fillColor=#008a00;strokeColor=#005700;" edge="1" parent="1" source="NrlBIx-T-GIZaoPw2DhL-55" target="NrlBIx-T-GIZaoPw2DhL-17">
          <mxGeometry relative="1" as="geometry">
            <mxPoint x="420" y="220" as="sourcePoint" />
            <mxPoint x="580" y="220" as="targetPoint" />
          </mxGeometry>
        </mxCell>
        <mxCell id="NrlBIx-T-GIZaoPw2DhL-61" value="" style="endArrow=none;html=1;rounded=0;exitX=0;exitY=1;exitDx=0;exitDy=0;entryX=0.5;entryY=0;entryDx=0;entryDy=0;fillColor=#008a00;strokeColor=#005700;" edge="1" parent="1" source="NrlBIx-T-GIZaoPw2DhL-57" target="NrlBIx-T-GIZaoPw2DhL-17">
          <mxGeometry relative="1" as="geometry">
            <mxPoint x="625" y="254" as="sourcePoint" />
            <mxPoint x="670" y="270" as="targetPoint" />
          </mxGeometry>
        </mxCell>
        <mxCell id="NrlBIx-T-GIZaoPw2DhL-62" value="" style="endArrow=none;html=1;rounded=0;exitX=1;exitY=1;exitDx=0;exitDy=0;entryX=0.5;entryY=0;entryDx=0;entryDy=0;fillColor=#008a00;strokeColor=#005700;" edge="1" parent="1" source="NrlBIx-T-GIZaoPw2DhL-59" target="NrlBIx-T-GIZaoPw2DhL-17">
          <mxGeometry relative="1" as="geometry">
            <mxPoint x="420" y="220" as="sourcePoint" />
            <mxPoint x="660" y="260" as="targetPoint" />
          </mxGeometry>
        </mxCell>
        <mxCell id="NrlBIx-T-GIZaoPw2DhL-63" value="" style="endArrow=none;html=1;rounded=0;entryX=0.5;entryY=0;entryDx=0;entryDy=0;exitX=0;exitY=1;exitDx=0;exitDy=0;fillColor=#008a00;strokeColor=#005700;" edge="1" parent="1" source="NrlBIx-T-GIZaoPw2DhL-58" target="NrlBIx-T-GIZaoPw2DhL-17">
          <mxGeometry relative="1" as="geometry">
            <mxPoint x="420" y="220" as="sourcePoint" />
            <mxPoint x="580" y="220" as="targetPoint" />
          </mxGeometry>
        </mxCell>
        <mxCell id="NrlBIx-T-GIZaoPw2DhL-66" value="kode_peminjaman" style="ellipse;whiteSpace=wrap;html=1;align=center;fillColor=#008a00;fontColor=#ffffff;strokeColor=#005700;" vertex="1" parent="1">
          <mxGeometry x="500" y="360" width="100" height="40" as="geometry" />
        </mxCell>
        <mxCell id="NrlBIx-T-GIZaoPw2DhL-67" value="tanggal_kembali" style="ellipse;whiteSpace=wrap;html=1;align=center;fillColor=#008a00;fontColor=#ffffff;strokeColor=#005700;" vertex="1" parent="1">
          <mxGeometry x="480" y="410" width="100" height="40" as="geometry" />
        </mxCell>
        <mxCell id="NrlBIx-T-GIZaoPw2DhL-68" value="tanggal_pinjam" style="ellipse;whiteSpace=wrap;html=1;align=center;fillColor=#008a00;fontColor=#ffffff;strokeColor=#005700;" vertex="1" parent="1">
          <mxGeometry x="480" y="460" width="100" height="40" as="geometry" />
        </mxCell>
        <mxCell id="NrlBIx-T-GIZaoPw2DhL-71" value="judul_buku" style="ellipse;whiteSpace=wrap;html=1;align=center;fillColor=#008a00;fontColor=#ffffff;strokeColor=#005700;" vertex="1" parent="1">
          <mxGeometry x="750" y="450" width="100" height="40" as="geometry" />
        </mxCell>
        <mxCell id="NrlBIx-T-GIZaoPw2DhL-72" value="denda" style="ellipse;whiteSpace=wrap;html=1;align=center;fillColor=#008a00;fontColor=#ffffff;strokeColor=#005700;" vertex="1" parent="1">
          <mxGeometry x="700" y="500" width="100" height="40" as="geometry" />
        </mxCell>
        <mxCell id="NrlBIx-T-GIZaoPw2DhL-77" value="nomor_anggota" style="ellipse;whiteSpace=wrap;html=1;align=center;fontStyle=4;fillColor=#008a00;fontColor=#ffffff;strokeColor=#005700;" vertex="1" parent="1">
          <mxGeometry x="750" y="400" width="100" height="40" as="geometry" />
        </mxCell>
        <mxCell id="NrlBIx-T-GIZaoPw2DhL-78" value="nomor_anggota" style="ellipse;whiteSpace=wrap;html=1;align=center;fontStyle=4;fillColor=#008a00;fontColor=#ffffff;strokeColor=#005700;" vertex="1" parent="1">
          <mxGeometry x="700" y="360" width="100" height="40" as="geometry" />
        </mxCell>
        <mxCell id="NrlBIx-T-GIZaoPw2DhL-79" value="judul_buku" style="ellipse;whiteSpace=wrap;html=1;align=center;fillColor=#008a00;fontColor=#ffffff;strokeColor=#005700;" vertex="1" parent="1">
          <mxGeometry x="500" y="670" width="100" height="40" as="geometry" />
        </mxCell>
        <mxCell id="NrlBIx-T-GIZaoPw2DhL-80" value="nomor_buku" style="ellipse;whiteSpace=wrap;html=1;align=center;fontStyle=4;fillColor=#008a00;fontColor=#ffffff;strokeColor=#005700;" vertex="1" parent="1">
          <mxGeometry x="509" y="721" width="100" height="40" as="geometry" />
        </mxCell>
        <mxCell id="NrlBIx-T-GIZaoPw2DhL-81" value="tahun_terbit" style="ellipse;whiteSpace=wrap;html=1;align=center;fillColor=#008a00;fontColor=#ffffff;strokeColor=#005700;" vertex="1" parent="1">
          <mxGeometry x="550" y="770" width="100" height="40" as="geometry" />
        </mxCell>
        <mxCell id="NrlBIx-T-GIZaoPw2DhL-82" value="penerbit" style="ellipse;whiteSpace=wrap;html=1;align=center;fillColor=#008a00;fontColor=#ffffff;strokeColor=#005700;" vertex="1" parent="1">
          <mxGeometry x="660" y="770" width="100" height="40" as="geometry" />
        </mxCell>
        <mxCell id="NrlBIx-T-GIZaoPw2DhL-83" value="jenis_buku" style="ellipse;whiteSpace=wrap;html=1;align=center;fillColor=#008a00;fontColor=#ffffff;strokeColor=#005700;" vertex="1" parent="1">
          <mxGeometry x="720" y="721" width="100" height="40" as="geometry" />
        </mxCell>
        <mxCell id="NrlBIx-T-GIZaoPw2DhL-84" value="pengarang" style="ellipse;whiteSpace=wrap;html=1;align=center;fillColor=#008a00;fontColor=#ffffff;strokeColor=#005700;" vertex="1" parent="1">
          <mxGeometry x="730" y="670" width="100" height="40" as="geometry" />
        </mxCell>
        <mxCell id="NrlBIx-T-GIZaoPw2DhL-86" value="" style="endArrow=none;html=1;rounded=0;exitX=1;exitY=0.5;exitDx=0;exitDy=0;entryX=0.5;entryY=1;entryDx=0;entryDy=0;fillColor=#008a00;strokeColor=#005700;" edge="1" parent="1" source="NrlBIx-T-GIZaoPw2DhL-79" target="NrlBIx-T-GIZaoPw2DhL-16">
          <mxGeometry relative="1" as="geometry">
            <mxPoint x="420" y="620" as="sourcePoint" />
            <mxPoint x="580" y="620" as="targetPoint" />
          </mxGeometry>
        </mxCell>
        <mxCell id="NrlBIx-T-GIZaoPw2DhL-87" value="" style="endArrow=none;html=1;rounded=0;exitX=1;exitY=0.5;exitDx=0;exitDy=0;entryX=0.5;entryY=1;entryDx=0;entryDy=0;fillColor=#008a00;strokeColor=#005700;" edge="1" parent="1" source="NrlBIx-T-GIZaoPw2DhL-80" target="NrlBIx-T-GIZaoPw2DhL-16">
          <mxGeometry relative="1" as="geometry">
            <mxPoint x="420" y="620" as="sourcePoint" />
            <mxPoint x="580" y="620" as="targetPoint" />
          </mxGeometry>
        </mxCell>
        <mxCell id="NrlBIx-T-GIZaoPw2DhL-88" value="" style="endArrow=none;html=1;rounded=0;exitX=0.63;exitY=-0.05;exitDx=0;exitDy=0;exitPerimeter=0;entryX=0.5;entryY=1;entryDx=0;entryDy=0;fillColor=#008a00;strokeColor=#005700;" edge="1" parent="1" source="NrlBIx-T-GIZaoPw2DhL-81" target="NrlBIx-T-GIZaoPw2DhL-16">
          <mxGeometry relative="1" as="geometry">
            <mxPoint x="420" y="620" as="sourcePoint" />
            <mxPoint x="580" y="620" as="targetPoint" />
          </mxGeometry>
        </mxCell>
        <mxCell id="NrlBIx-T-GIZaoPw2DhL-89" value="" style="endArrow=none;html=1;rounded=0;entryX=0.5;entryY=1;entryDx=0;entryDy=0;exitX=0.4;exitY=0;exitDx=0;exitDy=0;exitPerimeter=0;fillColor=#008a00;strokeColor=#005700;" edge="1" parent="1" source="NrlBIx-T-GIZaoPw2DhL-82" target="NrlBIx-T-GIZaoPw2DhL-16">
          <mxGeometry relative="1" as="geometry">
            <mxPoint x="420" y="620" as="sourcePoint" />
            <mxPoint x="580" y="620" as="targetPoint" />
          </mxGeometry>
        </mxCell>
        <mxCell id="NrlBIx-T-GIZaoPw2DhL-90" value="" style="endArrow=none;html=1;rounded=0;entryX=0.5;entryY=1;entryDx=0;entryDy=0;exitX=0.05;exitY=0.3;exitDx=0;exitDy=0;exitPerimeter=0;fillColor=#008a00;strokeColor=#005700;" edge="1" parent="1" source="NrlBIx-T-GIZaoPw2DhL-83" target="NrlBIx-T-GIZaoPw2DhL-16">
          <mxGeometry relative="1" as="geometry">
            <mxPoint x="420" y="620" as="sourcePoint" />
            <mxPoint x="660" y="670" as="targetPoint" />
          </mxGeometry>
        </mxCell>
        <mxCell id="NrlBIx-T-GIZaoPw2DhL-91" value="" style="endArrow=none;html=1;rounded=0;entryX=0.5;entryY=1;entryDx=0;entryDy=0;exitX=0;exitY=0.5;exitDx=0;exitDy=0;fillColor=#008a00;strokeColor=#005700;" edge="1" parent="1" source="NrlBIx-T-GIZaoPw2DhL-84" target="NrlBIx-T-GIZaoPw2DhL-16">
          <mxGeometry relative="1" as="geometry">
            <mxPoint x="420" y="620" as="sourcePoint" />
            <mxPoint x="580" y="620" as="targetPoint" />
          </mxGeometry>
        </mxCell>
        <mxCell id="NrlBIx-T-GIZaoPw2DhL-92" value="" style="endArrow=none;html=1;rounded=0;entryX=0.108;entryY=0.633;entryDx=0;entryDy=0;entryPerimeter=0;exitX=1;exitY=0;exitDx=0;exitDy=0;fillColor=#008a00;strokeColor=#005700;" edge="1" parent="1" source="NrlBIx-T-GIZaoPw2DhL-68" target="NrlBIx-T-GIZaoPw2DhL-9">
          <mxGeometry relative="1" as="geometry">
            <mxPoint x="420" y="520" as="sourcePoint" />
            <mxPoint x="580" y="520" as="targetPoint" />
          </mxGeometry>
        </mxCell>
        <mxCell id="NrlBIx-T-GIZaoPw2DhL-93" value="" style="endArrow=none;html=1;rounded=0;entryX=0;entryY=0.5;entryDx=0;entryDy=0;exitX=1;exitY=1;exitDx=0;exitDy=0;fillColor=#008a00;strokeColor=#005700;" edge="1" parent="1" source="NrlBIx-T-GIZaoPw2DhL-67" target="NrlBIx-T-GIZaoPw2DhL-9">
          <mxGeometry relative="1" as="geometry">
            <mxPoint x="420" y="520" as="sourcePoint" />
            <mxPoint x="580" y="520" as="targetPoint" />
          </mxGeometry>
        </mxCell>
        <mxCell id="NrlBIx-T-GIZaoPw2DhL-94" value="" style="endArrow=none;html=1;rounded=0;entryX=0.067;entryY=0.417;entryDx=0;entryDy=0;entryPerimeter=0;exitX=0.67;exitY=0.975;exitDx=0;exitDy=0;exitPerimeter=0;fillColor=#008a00;strokeColor=#005700;" edge="1" parent="1" source="NrlBIx-T-GIZaoPw2DhL-66" target="NrlBIx-T-GIZaoPw2DhL-9">
          <mxGeometry relative="1" as="geometry">
            <mxPoint x="420" y="520" as="sourcePoint" />
            <mxPoint x="580" y="520" as="targetPoint" />
          </mxGeometry>
        </mxCell>
        <mxCell id="NrlBIx-T-GIZaoPw2DhL-95" value="" style="endArrow=none;html=1;rounded=0;entryX=0.5;entryY=1;entryDx=0;entryDy=0;exitX=0.875;exitY=0.333;exitDx=0;exitDy=0;exitPerimeter=0;" edge="1" parent="1" source="NrlBIx-T-GIZaoPw2DhL-9" target="NrlBIx-T-GIZaoPw2DhL-78">
          <mxGeometry relative="1" as="geometry">
            <mxPoint x="730" y="430" as="sourcePoint" />
            <mxPoint x="580" y="520" as="targetPoint" />
          </mxGeometry>
        </mxCell>
        <mxCell id="NrlBIx-T-GIZaoPw2DhL-96" value="" style="endArrow=none;html=1;rounded=0;entryX=0;entryY=1;entryDx=0;entryDy=0;exitX=1;exitY=0.5;exitDx=0;exitDy=0;" edge="1" parent="1" source="NrlBIx-T-GIZaoPw2DhL-9" target="NrlBIx-T-GIZaoPw2DhL-77">
          <mxGeometry relative="1" as="geometry">
            <mxPoint x="420" y="520" as="sourcePoint" />
            <mxPoint x="580" y="520" as="targetPoint" />
          </mxGeometry>
        </mxCell>
        <mxCell id="NrlBIx-T-GIZaoPw2DhL-97" value="" style="endArrow=none;html=1;rounded=0;entryX=0.34;entryY=0;entryDx=0;entryDy=0;entryPerimeter=0;exitX=0.85;exitY=0.717;exitDx=0;exitDy=0;exitPerimeter=0;" edge="1" parent="1" source="NrlBIx-T-GIZaoPw2DhL-9" target="NrlBIx-T-GIZaoPw2DhL-72">
          <mxGeometry relative="1" as="geometry">
            <mxPoint x="420" y="520" as="sourcePoint" />
            <mxPoint x="580" y="520" as="targetPoint" />
          </mxGeometry>
        </mxCell>
        <mxCell id="NrlBIx-T-GIZaoPw2DhL-98" value="" style="endArrow=none;html=1;rounded=0;entryX=0.01;entryY=0.275;entryDx=0;entryDy=0;entryPerimeter=0;exitX=0.925;exitY=0.617;exitDx=0;exitDy=0;exitPerimeter=0;" edge="1" parent="1" source="NrlBIx-T-GIZaoPw2DhL-9" target="NrlBIx-T-GIZaoPw2DhL-71">
          <mxGeometry relative="1" as="geometry">
            <mxPoint x="420" y="520" as="sourcePoint" />
            <mxPoint x="580" y="520" as="targetPoint" />
          </mxGeometry>
        </mxCell>
      </root>
    </mxGraphModel>
  </diagram>
</mxfile>
